<svg width="70" height="70" viewBox="0 0 70 70" fill="none" xmlns="http://www.w3.org/2000/svg">
<path d="M67.7149 36.1002H60.8596L57.6605 28.3645C57.2796 27.522 56.4418 26.9859 55.5277 26.9859H45.6257V20.0927C45.6257 18.7907 44.6355 17.795 43.3406 17.795H31.839C29.8585 11.055 23.6126 6 16.2242 6C7.3123 6 0 13.3527 0 22.3138C0 25.837 1.14255 29.0538 2.97062 31.6579V54.3288C2.97062 55.6309 3.96083 56.6266 5.25571 56.6266H8.60718C9.52122 60.7625 13.1012 63.8261 17.4429 63.8261C21.7845 63.8261 25.4407 60.7625 26.2786 56.6266H38.7704H43.3406H46.6921C47.6061 60.7625 51.1861 63.8261 55.5277 63.8261C59.8694 63.8261 63.5256 60.7625 64.3634 56.6266H67.7149C69.0098 56.6266 70 55.6309 70 54.3288V38.3979C70 37.1725 69.0098 36.1002 67.7149 36.1002ZM16.2242 10.5955C22.6224 10.5955 27.8781 15.8802 27.8781 22.3138C27.8781 28.7475 22.6224 34.0322 16.2242 34.0322C9.8259 34.0322 4.64635 28.8241 4.64635 22.3904C4.64635 15.9568 9.8259 10.5955 16.2242 10.5955ZM17.4429 59.3072C14.9293 59.3072 12.9489 57.3159 12.9489 54.7884C12.9489 52.2609 14.9293 50.2695 17.4429 50.2695C19.9565 50.2695 21.9369 52.2609 21.9369 54.7884C21.9369 57.2393 19.9565 59.3072 17.4429 59.3072ZM38.7704 52.1077H26.1262C24.9837 48.3547 21.556 45.6741 17.4429 45.6741C13.3297 45.6741 9.90207 48.3547 8.75952 52.1077H7.5408V36.1002C10.0544 37.7086 13.025 38.6277 16.2242 38.6277C25.136 38.6277 32.3721 31.3516 32.4483 22.3904H41.0555V52.0311H38.7704V52.1077ZM55.5277 59.3072C53.0141 59.3072 51.0337 57.3159 51.0337 54.7884C51.0337 52.2609 53.0141 50.2695 55.5277 50.2695C58.0413 50.2695 60.0218 52.2609 60.0218 54.7884C60.0979 57.2393 58.0413 59.3072 55.5277 59.3072ZM65.4298 52.1077H64.2111C63.0686 48.3547 59.6409 45.6741 55.5277 45.6741C51.4146 45.6741 47.9869 48.3547 46.8444 52.1077H45.6257V31.6579H54.0044L57.2035 39.3936C57.5843 40.2361 58.4222 40.7722 59.3362 40.7722H65.4298V52.1077Z" fill="#8E836A"/>
<path d="M16.2245 24.6882H21.5564C22.8513 24.6882 23.8415 23.6925 23.8415 22.3905C23.8415 21.0884 22.8513 20.0927 21.5564 20.0927H18.5096V15.3441C18.5096 14.0421 17.5194 13.0464 16.2245 13.0464C14.9297 13.0464 13.9395 14.0421 13.9395 15.3441V22.3905C13.9395 23.6159 15.0058 24.6882 16.2245 24.6882Z" fill="#8E836A"/>
</svg>
