<svg width="18" height="18" viewBox="0 0 18 18" fill="none" xmlns="http://www.w3.org/2000/svg">
<path fill-rule="evenodd" clip-rule="evenodd" d="M12.6377 0H5.3623C2.40551 0 0 2.40551 0 5.3623V12.6377C0 15.5945 2.40551 18 5.3623 18H12.6377C15.5945 18 18 15.5945 18 12.6377V5.3623C18 2.40551 15.5945 0 12.6377 0ZM16.1892 12.6377C16.1892 14.5991 14.5991 16.1892 12.6377 16.1892H5.3623C3.40088 16.1892 1.8108 14.5991 1.8108 12.6377V5.3623C1.8108 3.40084 3.40088 1.8108 5.3623 1.8108H12.6377C14.5991 1.8108 16.1892 3.40084 16.1892 5.3623V12.6377ZM9.00001 4.34447C6.43299 4.34447 4.34457 6.4329 4.34457 8.99988C4.34457 11.5669 6.43299 13.6553 9.00001 13.6553C11.567 13.6553 13.6554 11.5669 13.6554 8.99988C13.6554 6.43287 11.567 4.34447 9.00001 4.34447ZM9.00001 11.8446C7.42894 11.8446 6.15537 10.571 6.15537 8.99991C6.15537 7.42885 7.42898 6.15527 9.00001 6.15527C10.5711 6.15527 11.8446 7.42885 11.8446 8.99991C11.8446 10.5709 10.571 11.8446 9.00001 11.8446ZM14.78 4.37953C14.78 4.99562 14.2806 5.49507 13.6645 5.49507C13.0484 5.49507 12.5489 4.99562 12.5489 4.37953C12.5489 3.76343 13.0484 3.26399 13.6645 3.26399C14.2806 3.26399 14.78 3.76343 14.78 4.37953Z" fill="#F9F3E7"/>
</svg>
