<svg width="58" height="40" viewBox="0 0 58 40" fill="none" xmlns="http://www.w3.org/2000/svg">
<path d="M38.3437 39.4222H0V0H38.3437V13.4881H36.5661V1.82753H1.77567V37.5946H36.5661V25.8459H38.3437V39.4222Z" fill="white"/>
<path d="M7.83301 15.6626H9.61428V19.1529L12.1632 15.6626H14.3004L11.3732 19.3598L14.5333 23.6738H12.275L9.61428 19.8617V23.6738H7.83301V15.6626Z" fill="white"/>
<path d="M19.1784 22.0226C20.615 22.0226 21.3603 20.9786 21.3603 19.6683C21.3603 18.2468 20.3988 17.3139 19.1784 17.3139C17.9262 17.3139 16.9983 18.2468 16.9983 19.6683C16.9983 20.9997 17.9691 22.0226 19.1784 22.0226ZM19.1784 15.6492C21.4795 15.6492 23.1975 17.1913 23.1975 19.6683C23.1975 22.0226 21.4795 23.6873 19.1784 23.6873C16.8791 23.6873 15.1611 22.1433 15.1611 19.6683C15.1611 17.4135 16.771 15.6492 19.1784 15.6492Z" fill="white"/>
<path d="M30.6875 23.6735L26.9926 18.8671V23.6735H25.3213V15.6641H26.7467L30.4434 20.4915L30.4397 15.6641H32.1091L32.1129 23.6735H30.6875Z" fill="white"/>
<path d="M34.2559 15.6626H40.712V17.379H38.3737V23.6738H36.5924V17.379H34.2559V15.6626Z" fill="white"/>
<path d="M49.3517 20.2274C49.3517 22.6755 47.8387 23.6716 46.1692 23.6716C44.1663 23.6716 42.7744 22.4935 42.7744 20.1469V15.6663H44.5557V19.758C44.5557 21.0051 44.9227 21.9553 46.1692 21.9553C47.2481 21.9553 47.5704 21.143 47.5704 19.8615V15.6663H49.3517V20.2274Z" fill="white"/>
<path d="M53.2744 17.4056V19.1795H53.9191C54.5992 19.1795 55.1321 18.9267 55.1321 18.2524C55.1321 17.806 54.9122 17.4037 54.0551 17.4037C53.7868 17.4037 53.6415 17.3942 53.2744 17.4056ZM51.4932 23.6716V15.6663C51.9273 15.6663 53.9191 15.6663 54.1427 15.6663C56.2687 15.6663 57.0252 16.7524 57.0252 18.2294C57.0252 19.7159 56.1345 20.3231 55.7116 20.5415L57.9642 23.6716H55.8047L53.9303 20.8959H53.2744V23.6716H51.4932Z" fill="white"/>
</svg>
