<svg width="170" height="24" viewBox="0 0 170 24" fill="none" xmlns="http://www.w3.org/2000/svg">
<path d="M0 0.756104H10.2425V1.87215H7.79437C7.41635 1.87215 7.11034 1.98015 6.93033 2.17816C6.75032 2.37617 6.66031 2.70018 6.66031 3.15021V20.593C6.66031 21.0071 6.78632 21.3131 7.02033 21.4751C7.25434 21.6551 7.72236 21.7271 8.4244 21.7271H11.5205C13.1766 21.7271 14.5267 21.1691 15.5707 20.071C16.6148 18.973 17.3888 17.0649 17.8568 14.3467H18.9009L18.3969 22.8431H0V21.7271H1.80008C2.41211 21.7271 2.84413 21.6191 3.09614 21.3851C3.34816 21.1511 3.47416 20.773 3.47416 20.251V2.9882C3.47416 2.62819 3.36616 2.34018 3.16815 2.16017C2.95214 1.98016 2.64612 1.87215 2.2321 1.87215H0V0.756104Z" fill="#BA9B41"/>
<path d="M22.0146 0.756104H32.2031V1.87215H30.457C29.683 1.87215 29.197 1.96216 28.981 2.16017C28.783 2.35818 28.675 2.7722 28.675 3.38423V20.125C28.675 20.791 28.765 21.2051 28.945 21.3851C29.179 21.6191 29.611 21.7271 30.241 21.7271H32.2031V22.8431H22.0146V21.7271H23.9407C24.6248 21.7271 25.0568 21.6371 25.2548 21.4211C25.4528 21.2231 25.5608 20.791 25.5608 20.125V3.38423C25.5608 2.7542 25.4708 2.35817 25.2908 2.19616C25.0208 1.96215 24.4988 1.85416 23.7427 1.85416H22.0146V0.756104Z" fill="#BA9B41"/>
<path d="M35.9657 0.756104H46.8742C49.3403 0.756104 51.2124 1.31413 52.5085 2.43018C53.8045 3.54624 54.4526 5.0043 54.4526 6.80439C54.4526 8.60447 53.8585 9.97253 52.6705 10.9266C51.0324 12.2226 48.9983 12.8887 46.5862 12.8887H42.644V20.431C42.644 20.8631 42.752 21.1871 42.95 21.3671C43.22 21.6011 43.5981 21.7271 44.0661 21.7271H46.5682V22.8431H35.9477V21.7271H38.1618C38.6118 21.7271 38.9178 21.6371 39.1338 21.4751C39.3318 21.2951 39.4398 21.0611 39.4398 20.773V3.15021C39.4398 2.70018 39.3138 2.37617 39.0438 2.17816C38.7918 1.98015 38.2878 1.87215 37.5678 1.87215H35.9297V0.756104H35.9657ZM42.644 11.7906H45.6501C47.5402 11.7906 48.9263 11.3946 49.7543 10.6026C50.6004 9.81052 51.0144 8.49646 51.0144 6.67837C51.0144 5.40031 50.8344 4.42827 50.4384 3.74424C50.0604 3.0602 49.5023 2.55619 48.7823 2.23217C48.0623 1.90816 46.8562 1.74614 45.1821 1.74614C44.0841 1.74614 43.382 1.85414 43.076 2.05215C42.77 2.25016 42.644 2.62818 42.644 3.15021V11.7906Z" fill="#BA9B41"/>
<path d="M68.3492 0.288208C70.2032 0.288208 71.9493 0.77423 73.5874 1.76428C75.2255 2.73632 76.4855 4.12239 77.4216 5.86847C78.3396 7.63255 78.8076 9.61265 78.8076 11.8088C78.8076 14.0049 78.3396 16.0029 77.4216 17.767C76.5035 19.5311 75.2255 20.9172 73.6054 21.9072C71.9853 22.8973 70.2753 23.4013 68.4572 23.4013C66.6931 23.4013 65.019 22.9153 63.4709 21.9432C61.9229 20.9712 60.6628 19.5851 59.7267 17.767C58.7907 15.9669 58.3047 13.9509 58.3047 11.7548C58.3047 9.57665 58.7547 7.63255 59.6727 5.86847C60.5908 4.12239 61.8329 2.75432 63.4169 1.76428C64.983 0.792231 66.6391 0.288208 68.3492 0.288208ZM68.5832 1.44026C66.6391 1.44026 65.073 2.25029 63.867 3.85237C62.6609 5.45444 62.0669 8.10058 62.0669 11.7367C62.0669 15.6969 62.6789 18.4331 63.921 19.9451C65.163 21.4572 66.6931 22.2132 68.5112 22.2132C69.7892 22.2132 70.9053 21.8712 71.8773 21.1872C72.8494 20.5032 73.6054 19.4051 74.1814 17.911C74.7575 16.417 75.0455 14.4549 75.0455 12.0248C75.0455 9.37863 74.7755 7.30854 74.2354 5.81447C73.6954 4.3204 72.9214 3.22234 71.9313 2.5023C70.9233 1.80027 69.8072 1.44026 68.5832 1.44026Z" fill="#BA9B41"/>
<path d="M92.7764 0.756104H103.037V1.87215H100.589C100.193 1.87215 99.9047 1.98015 99.7247 2.17816C99.5447 2.37617 99.4547 2.70018 99.4547 3.15021V20.593C99.4547 21.0071 99.5627 21.3131 99.7967 21.4751C100.031 21.6551 100.499 21.7271 101.201 21.7271H104.297C105.953 21.7271 107.303 21.1691 108.347 20.071C109.391 18.973 110.165 17.0649 110.633 14.3467H111.677L111.173 22.8431H92.7764V21.7271H94.5765C95.1885 21.7271 95.6205 21.6191 95.8725 21.3851C96.1245 21.1511 96.2505 20.773 96.2505 20.251V2.9882C96.2505 2.62819 96.1425 2.34018 95.9445 2.16017C95.7285 1.98016 95.4225 1.87215 95.0265 1.87215H92.7764V0.756104Z" fill="#BA9B41"/>
<path d="M114.81 0.756104H124.998V1.87215H123.252C122.478 1.87215 121.992 1.96216 121.776 2.16017C121.578 2.35818 121.47 2.7722 121.47 3.38423V20.125C121.47 20.791 121.56 21.2051 121.74 21.3851C121.974 21.6191 122.406 21.7271 123.036 21.7271H124.998V22.8431H114.81V21.7271H116.736C117.42 21.7271 117.852 21.6371 118.05 21.4211C118.248 21.2231 118.356 20.791 118.356 20.125V3.38423C118.356 2.7542 118.266 2.35817 118.086 2.19616C117.798 1.96215 117.294 1.85416 116.556 1.85416H114.828V0.756104H114.81Z" fill="#BA9B41"/>
<path d="M129.156 0.756104H147.139L147.445 8.40646H146.419C145.969 5.77834 145.321 4.06826 144.493 3.25822C143.539 2.34018 142.189 1.87215 140.443 1.87215H136.897C136.555 1.87215 136.303 1.96215 136.141 2.12416C135.979 2.28617 135.907 2.53818 135.907 2.8622V10.8546H137.797C138.859 10.8546 139.687 10.5126 140.317 9.81053C140.947 9.10849 141.289 8.04644 141.325 6.58837H142.405V16.5608H141.325C141.253 14.9048 140.911 13.7347 140.317 13.0147C139.705 12.3126 138.877 11.9526 137.797 11.9526H135.907V20.377C135.907 20.881 136.033 21.2231 136.267 21.4211C136.501 21.6191 136.915 21.7271 137.509 21.7271H139.777V22.8431H129.156V21.7271H131.424C131.874 21.7271 132.216 21.6371 132.396 21.4571C132.576 21.2771 132.684 20.9711 132.684 20.557V2.9882C132.684 2.59219 132.576 2.30417 132.378 2.14216C132.18 1.98016 131.82 1.89015 131.316 1.89015H129.156V0.756104Z" fill="#BA9B41"/>
<path d="M151.423 0.756104H168.938L169.352 8.20845H168.344C167.948 5.85034 167.318 4.21226 166.454 3.27621C165.59 2.34017 164.474 1.87215 163.088 1.87215H158.768C158.426 1.87215 158.156 1.96216 157.976 2.16017C157.796 2.35818 157.706 2.64618 157.706 3.0242V10.9086H159.596C160.604 10.9086 161.432 10.5486 162.062 9.81053C162.692 9.09049 163.034 7.97444 163.088 6.46237H164.114V16.7049H163.088C163.034 15.0128 162.692 13.8067 162.044 13.0687C161.396 12.3306 160.532 11.9706 159.434 11.9706H157.706V20.755C157.706 21.0791 157.814 21.3131 158.03 21.4931C158.246 21.6551 158.606 21.7451 159.092 21.7451H162.512C166.22 21.7451 168.362 19.369 168.92 14.6348H170L169.622 22.8611H151.405V21.7451H152.917C153.511 21.7451 153.925 21.6371 154.159 21.4391C154.393 21.2411 154.519 20.9351 154.519 20.557V3.04221C154.519 2.64619 154.411 2.35817 154.213 2.17816C153.997 1.99815 153.673 1.89015 153.223 1.89015H151.423V0.756104Z" fill="#BA9B41"/>
</svg>
