<svg width="70" height="70" viewBox="0 0 70 70" fill="none" xmlns="http://www.w3.org/2000/svg">
<path fill-rule="evenodd" clip-rule="evenodd" d="M45.5375 17.5C45.5375 18.725 46.5 19.6875 47.8125 19.6875C51.4 19.6875 54.375 22.6625 54.375 26.25V63.4375C54.375 67.025 51.4 70 47.8125 70H21.5625C17.975 70 15 67.025 15 63.4375V26.25C15 22.6625 17.975 19.6875 21.5625 19.6875H21.65C22.875 19.6875 23.8375 18.725 23.8375 17.5C23.8375 16.7125 23.925 16.0125 24.1875 15.3125H23.75C22.525 15.3125 21.5625 14.35 21.5625 13.125C21.5625 11.9 22.525 10.9375 23.75 10.9375H27.6875L25.9375 2.625C25.85 2.0125 26.1125 1.3125 26.4625 0.7875C26.8125 0.2625 27.425 0 28.125 0H41.25C41.8625 0 42.475 0.2625 42.9125 0.7875C43.35 1.3125 43.4375 2.0125 43.35 2.625L41.6875 10.9375H45.625C46.85 10.9375 47.8125 11.9 47.8125 13.125C47.8125 14.35 46.85 15.3125 45.625 15.3125H45.1875L45.1875 15.3125C45.3625 16.0125 45.5375 16.7125 45.5375 17.5ZM37.225 10.9375L38.5375 4.375H30.75L32.15 10.9375H37.225ZM47.8125 65.625C49.0375 65.625 50 64.6625 50 63.4375V26.25C50 25.025 49.0375 24.0625 47.8125 24.0625C44.225 24.0625 41.25 21.0875 41.25 17.5C41.25 16.3625 40.375 15.4 39.2375 15.3125H30.225C29.0875 15.4 28.2125 16.3625 28.2125 17.5C28.2125 21.0875 25.2375 24.0625 21.65 24.0625H21.5625C20.3375 24.0625 19.375 25.025 19.375 26.25V63.4375C19.375 64.6625 20.3375 65.625 21.5625 65.625H47.8125ZM23.75 54.6875H25.9375C36.7875 54.6875 45.5375 45.85 45.5375 35V32.9H43.35C32.5875 32.9 23.75 41.65 23.75 52.5V54.6875ZM40.9875 37.3625C34.425 38.4125 29.2625 43.575 28.3 50.05C34.775 49.0875 39.9375 43.925 40.9875 37.3625Z" fill="#8E836A"/>
</svg>
