<svg width="70" height="70" viewBox="0 0 70 70" fill="none" xmlns="http://www.w3.org/2000/svg">
<path fill-rule="evenodd" clip-rule="evenodd" d="M48.2728 65.0305V65.6305H37.8546V54.2634C37.8546 53.2129 37.02 52.3786 36 52.3786C34.9801 52.3786 34.1455 53.2129 34.1455 54.2634V59.6538V65.6305H23.1273V44.9748L26.8681 50.7608C27.3348 51.4945 28.2589 51.7964 29.0753 51.4838L36 48.8166L42.9324 51.4867L42.94 51.4899C43.133 51.5703 43.3633 51.6093 43.5764 51.6093C44.1866 51.6093 44.77 51.3019 45.1368 50.7534L45.1389 50.7502L48.8728 44.9748V65.0305H48.2728ZM14.6505 33.1293L10.0108 27.2882C9.46385 26.5955 9.46385 25.6108 10.0108 24.918L14.6505 19.0769L14.2795 11.6L14.2794 11.598C14.2427 10.7091 14.8215 9.90958 15.6517 9.68712L22.8143 7.72055L26.8659 1.44888L26.8681 1.44537C27.335 0.711584 28.2596 0.409811 29.0761 0.722756L36 3.38962L42.9242 0.722641C43.7408 0.409696 44.6651 0.711584 45.132 1.44538L49.1858 7.72055L56.3448 9.68615L56.3484 9.68711C57.188 9.91209 57.7706 10.7008 57.721 11.5921L57.3496 19.0769L61.9896 24.9184C62.5348 25.6087 62.5394 26.5936 61.988 27.3064L61.9861 27.3089L57.3496 33.1458L57.7206 40.6227L57.7206 40.6245C57.7575 41.5135 57.1786 42.3132 56.3484 42.5357L52.5819 43.5687V67.5153C52.5819 68.5657 51.7472 69.4 50.7273 69.4H21.2728C20.2528 69.4 19.4182 68.5657 19.4182 67.5153V43.5521L15.6551 42.52L15.6517 42.5191C14.8121 42.2941 14.2295 41.5054 14.2791 40.6141L14.6505 33.1293ZM47.5722 11.165L47.5685 11.1639C47.1306 11.0363 46.7485 10.7587 46.5042 10.3753L42.8838 4.76169L36.6889 7.13793L36.6872 7.13857C36.249 7.30285 35.7802 7.30043 35.3657 7.13999L29.1654 4.76169L25.5467 10.3726L25.545 10.3753C25.3006 10.7587 24.9186 11.0363 24.4807 11.1639L18.0967 12.9134L18.4317 19.6065L18.4318 19.6085C18.4565 20.0708 18.3091 20.5247 18.0198 20.8946L18.0186 20.8961L13.879 26.1031L18.0186 31.3101L18.0199 31.3117C18.3091 31.6816 18.4565 32.1355 18.4318 32.5977L18.0967 39.2928L24.477 41.0412L24.4806 41.0423C24.9185 41.1699 25.3006 41.4475 25.545 41.8309L29.1654 47.4445L35.372 45.0638L35.38 45.0605C35.5747 44.9793 35.7891 44.941 36.0164 44.941C36.2437 44.941 36.4581 44.9793 36.6528 45.0605L36.6608 45.0638L42.8674 47.4445L46.4861 41.8336L46.4878 41.8309C46.7322 41.4475 47.1143 41.1698 47.5522 41.0423L47.5558 41.0412L53.9361 39.2928L53.6011 32.5997L53.601 32.5977C53.5763 32.1357 53.7236 31.682 54.0125 31.3122L54.0142 31.3101L58.1708 26.1039L54.0305 20.8961L54.0294 20.8947C53.7401 20.5248 53.5927 20.0708 53.6174 19.6085L53.6175 19.6065L53.9525 12.9134L47.5722 11.165Z" fill="#8E836A"/>
<path fill-rule="evenodd" clip-rule="evenodd" d="M19.418 26.1032C19.418 16.8365 26.8635 9.31006 35.9998 9.31006C45.1361 9.31006 52.5816 16.8365 52.5816 26.1032C52.5816 35.3698 45.1361 42.8963 35.9998 42.8963C26.8635 42.8963 19.418 35.3698 19.418 26.1032ZM23.1271 26.1032C23.1271 33.2854 28.887 39.1268 35.9998 39.1268C43.1126 39.1268 48.8725 33.2854 48.8725 26.1032C48.8725 18.9209 43.1126 13.0795 35.9998 13.0795C28.887 13.0795 23.1271 18.9209 23.1271 26.1032Z" fill="#8E836A"/>
</svg>
