<svg width="70" height="70" viewBox="0 0 70 70" fill="none" xmlns="http://www.w3.org/2000/svg">
<path d="M62.5657 30.8416C60.8067 30.8435 59.1054 31.4701 57.7641 32.6101C56.4228 33.75 55.5285 35.3294 55.2401 37.0676H40.8663C40.3682 34.7425 38.9896 32.7014 37.0202 31.3735C35.0508 30.0456 32.6442 29.5343 30.3063 29.947L34.8682 14.5574C43.087 15.5487 44.0645 3.36268 35.7734 3C34.5259 3.00962 33.3144 3.41987 32.3171 4.17044C31.3197 4.92102 30.5889 5.97231 30.2323 7.1698C29.8757 8.36728 29.9121 9.64777 30.3359 10.823C30.7598 11.9983 31.5489 13.0064 32.5873 13.699L27.4943 30.9383C25.3612 32.1175 23.7815 34.0955 23.1013 36.439L14.6533 27.9765C18.6238 22.8748 14.6533 14.9321 8.14828 15.0651C6.00261 15.0522 3.93955 15.8929 2.41216 17.4025C0.884761 18.9121 0.0179067 20.9673 0.00195624 23.1166C-0.142867 29.6448 7.78622 33.6101 12.8792 29.6327L22.7513 39.4855C22.8955 41.8901 23.9743 44.1424 25.7564 45.7598L21.0014 50.5955C19.6675 49.4243 17.9436 48.7969 16.1703 48.8373C14.3971 48.8778 12.7034 49.5831 11.4242 50.8139C10.1449 52.0446 9.37313 53.7114 9.26133 55.4846C9.14953 57.2579 9.70586 59.0086 10.8204 60.3908C11.9349 61.7731 13.5265 62.6862 15.2806 62.9498C17.0347 63.2134 18.8237 62.8082 20.294 61.8144C21.7644 60.8206 22.809 59.3104 23.2216 57.5823C23.6341 55.8543 23.3845 54.0341 22.522 52.4815L27.7598 47.1863C29.3985 48.0076 31.2447 48.3198 33.0617 48.0828C34.8787 47.8459 36.5836 47.0707 37.9578 45.8565L40.8422 53.5211C39.9061 54.2743 39.2262 55.2997 38.8962 56.4561C38.5661 57.6124 38.6021 58.8429 38.9992 59.9779C39.3963 61.1129 40.135 62.0967 41.1135 62.7936C42.092 63.4906 43.2621 63.8665 44.4628 63.8696C53.1281 63.386 51.5109 50.6922 43.0266 52.421L39.7439 43.7167C40.5139 42.4335 40.9573 40.9805 41.0353 39.4855H55.2401C56.8814 48.4074 69.7224 47.416 70 38.2765C69.9936 36.3046 69.2079 34.4153 67.8148 33.0221C66.4216 31.6288 64.5344 30.8448 62.5657 30.8416Z" fill="#8E836A"/>
</svg>
